#tb 0: 1/25
#media_type 0: video
#codec_id 0: rawvideo
#dimensions 0: 320x176
#sar 0: 0/1
0,          0,          0,        1,    84480, 0x0699eb38
0,          1,          1,        1,    84480, 0xce902c32
0,          2,          2,        1,    84480, 0xb6d125f7
0,          3,          3,        1,    84480, 0x2555e93b
0,          4,          4,        1,    84480, 0xaea5c08c
0,          5,          5,        1,    84480, 0x848eb3da
0,          6,          6,        1,    84480, 0x6cfabe90
0,          7,          7,        1,    84480, 0xed16cc5e
0,          8,          8,        1,    84480, 0xda8df8f8
0,          9,          9,        1,    84480, 0x83fa054b
